# Blender v2.93.2 OBJ File: 'Tapete.blend'
# www.blender.org
mtllib Tapete2.mtl
o Cube
v 2.832121 0.007138 -1.122400
v 3.071170 0.000726 -1.360787
v 2.832121 0.009458 1.275130
v 3.071170 0.000726 1.518986
v -0.334058 0.007138 -1.122400
v -0.574333 0.000726 -1.360787
v -0.334058 0.009458 1.275130
v -0.574333 0.000726 1.518986
v 3.054608 0.009654 1.497617
v -0.556545 0.009654 1.497617
v 3.054608 0.006941 -1.344887
v -0.556545 0.006941 -1.344887
vt 1.687348 1.657767
vt -0.686808 1.657767
vt -0.686808 -0.655357
vt 1.687348 -0.655358
vt 1.868775 -0.870250
vt 1.854180 -0.851419
vt -0.853639 -0.851419
vt -0.869315 -0.870250
vt -0.853639 1.853829
vt -0.869315 1.867840
vt 1.868775 1.867840
vt 1.854180 1.853829
vn 0.0000 1.0000 -0.0009
vn 0.6323 -0.0794 0.7707
vn 0.1693 0.9753 0.1418
vn -0.1571 0.9771 0.1435
vn -0.6380 -0.0777 0.7661
vn -0.1482 0.9783 -0.1445
vn -0.7673 -0.1307 -0.6278
vn 0.7598 -0.1362 -0.6357
vn 0.1600 0.9767 -0.1428
usemtl (null)
s 1
f 1/1/1 5/2/1 7/3/1 3/4/1
f 4/5/2 9/6/3 10/7/4 8/8/5
f 8/8/5 10/7/4 12/9/6 6/10/7
f 6/10/7 2/11/8 4/5/2 8/8/5
f 2/11/8 11/12/9 9/6/3 4/5/2
f 6/10/7 12/9/6 11/12/9 2/11/8
f 3/4/1 7/3/1 10/7/4 9/6/3
f 1/1/1 3/4/1 9/6/3 11/12/9
f 7/3/1 5/2/1 12/9/6 10/7/4
f 5/2/1 1/1/1 11/12/9 12/9/6
