# Blender v3.1.2 OBJ File: 'inter_blender.blend'
# www.blender.org
mtllib caixao_baixo.mtl
o cima_caixao_Plane.093
v -0.344668 -0.041634 2.159182
v -0.344668 -0.002354 2.159182
v -0.441166 -0.041634 1.550847
v -0.441166 -0.002354 1.550847
v 0.345966 -0.041634 2.159182
v 0.345966 -0.002354 2.159182
v 0.442465 -0.041634 1.550847
v 0.442465 -0.002354 1.550847
v -0.604478 -0.041634 0.187230
v -0.604478 -0.002354 0.187230
v 0.605776 -0.041634 0.187230
v 0.605776 -0.002354 0.187230
v -0.716926 -0.041634 -0.630166
v -0.716926 -0.002354 -0.630166
v 0.718224 -0.041634 -0.630166
v 0.718224 -0.002354 -0.630166
v -0.716926 -0.041634 -0.661158
v -0.716926 -0.002354 -0.661158
v 0.718224 -0.041634 -0.661158
v 0.718224 -0.002354 -0.661158
v -0.430699 -0.041634 -1.899182
v -0.430699 -0.002354 -1.899182
v 0.431997 -0.041634 -1.899182
v 0.431997 -0.002354 -1.899182
v -0.323451 0.015973 2.115603
v -0.414020 0.015973 1.463831
v 0.415318 0.015973 1.463831
v 0.324749 0.015973 2.115603
v -0.567298 0.015973 0.183997
v 0.568596 0.015973 0.183997
v -0.672837 0.015973 -0.583176
v 0.674135 0.015973 -0.583176
v -0.672837 0.015973 -0.612263
v 0.674135 0.015973 -0.612263
v -0.404196 0.015973 -1.772112
v 0.405494 0.015973 -1.772112
v -0.304169 0.026033 2.008916
v -0.389350 0.026033 1.384751
v 0.390648 0.026033 1.384751
v 0.305467 0.026033 2.008916
v -0.533508 0.026033 0.181060
v 0.534806 0.026033 0.181060
v -0.632768 0.026033 -0.540470
v 0.634066 0.026033 -0.540470
v -0.632768 0.026033 -0.567827
v 0.634066 0.026033 -0.567827
v -0.380110 0.026033 -1.658672
v 0.381408 0.026033 -1.658672
v -0.300093 0.008057 1.983857
v -0.384136 0.008057 1.368037
v 0.385434 0.008057 1.368037
v 0.301392 0.008057 1.983857
v -0.526366 0.008057 0.180439
v 0.527664 0.008057 0.180439
v -0.624300 0.008057 -0.531445
v 0.625598 0.008057 -0.531445
v -0.624300 0.008057 -0.558435
v 0.625598 0.008057 -0.558435
v -0.375019 0.008057 -1.634696
v 0.376317 0.008057 -1.634696
v -0.278621 0.048189 1.851827
v -0.356663 0.048189 1.279974
v 0.357961 0.048189 1.279974
v 0.279919 0.048189 1.851827
v -0.488739 0.048189 0.177168
v 0.490037 0.048189 0.177168
v -0.579680 0.048189 -0.483889
v 0.580978 0.048189 -0.483889
v -0.579680 0.048189 -0.508952
v 0.580978 0.048189 -0.508952
v -0.348197 0.048189 -1.508371
v 0.349495 0.048189 -1.508371
v 0.000649 -0.041634 1.550847
v 0.000649 -0.041634 2.159182
v 0.000649 -0.002354 2.159182
v 0.000649 -0.041634 0.187230
v 0.000649 -0.041634 -0.630166
v 0.000649 -0.041634 -0.661158
v 0.000649 -0.041634 -1.899182
v 0.000649 -0.002354 -1.899182
v 0.000649 0.015973 2.115603
v 0.000649 0.015973 -1.772112
v 0.000649 0.026033 2.008916
v 0.000649 0.026033 -1.658672
v 0.000649 0.008057 1.983857
v 0.000649 0.008057 -1.634696
v 0.000649 0.048189 1.279974
v 0.000649 0.048189 1.851827
v 0.000649 0.048189 0.177168
v 0.000649 0.048189 -0.483889
v 0.000649 0.048189 -0.508952
v 0.000649 0.048189 -1.508371
v -0.057596 0.048611 -0.398838
v 0.058894 0.048611 -0.398838
v -0.057596 0.048611 -0.619068
v 0.058894 0.048611 -0.619068
v -0.057596 0.048611 -1.144186
v 0.058894 0.048611 -1.144186
v 0.058894 0.048611 -0.952491
v -0.057596 0.048611 -0.952491
v -0.057596 0.048611 -0.879516
v 0.058894 0.048611 -0.879516
v 0.142573 0.076199 -0.916004
v 0.142573 0.048611 -0.916004
v -0.305142 0.048611 -0.952491
v -0.305142 0.048611 -0.879516
v -0.057596 0.076199 -0.619068
v -0.057596 0.076199 -0.398838
v 0.058894 0.076199 -0.398838
v 0.058894 0.076199 -0.619068
v 0.058894 0.076199 -1.144186
v -0.057596 0.076199 -1.144186
v 0.058894 0.076199 -0.952491
v -0.057596 0.076199 -0.879516
v 0.058894 0.076199 -0.879516
v -0.057596 0.076199 -0.952491
v 0.154794 0.076199 -0.879516
v 0.154794 0.048611 -0.879516
v -0.305142 0.076199 -0.952491
v -0.305142 0.076199 -0.879516
v 0.192038 0.048611 -0.879516
v 0.156694 0.048611 -0.952491
v 0.184868 0.076199 -0.879516
v 0.166977 0.076199 -0.952491
v 0.058894 0.048611 -0.916004
v -0.057596 0.048611 -0.916004
v 0.151761 0.076199 -0.952491
v -0.305142 0.048611 -0.916004
v 0.058894 0.076199 -0.916004
v -0.057596 0.076199 -0.916004
v 0.151761 0.048611 -0.952491
v -0.305142 0.076199 -0.916004
v 0.180953 0.076199 -0.916004
v 0.185859 0.048611 -0.916004
vt 0.000000 0.000000
vt 0.000000 1.000000
vt 1.000000 1.000000
vt 1.000000 0.000000
vt 0.000000 1.000000
vt 0.000000 1.000000
vt 1.000000 1.000000
vt 1.000000 1.000000
vt 0.000000 1.000000
vt 1.000000 1.000000
vt 0.000000 1.000000
vt 1.000000 1.000000
vt 1.000000 1.000000
vt 1.000000 1.000000
vt 1.000000 1.000000
vt 1.000000 1.000000
vt 0.000000 1.000000
vt 0.000000 1.000000
vt 0.000000 0.000000
vt 1.000000 0.000000
vt 1.000000 1.000000
vt 0.000000 1.000000
vt 0.000000 1.000000
vt 1.000000 1.000000
vt 1.000000 1.000000
vt 0.000000 1.000000
vt 0.000000 1.000000
vt 1.000000 1.000000
vt 1.000000 1.000000
vt 0.000000 1.000000
vt 1.000000 1.000000
vt 1.000000 1.000000
vt 0.000000 1.000000
vt 0.000000 1.000000
vt 1.000000 1.000000
vt 0.000000 1.000000
vt 0.000000 1.000000
vt 1.000000 1.000000
vt 1.000000 1.000000
vt 1.000000 1.000000
vt 1.000000 1.000000
vt 1.000000 1.000000
vt 0.375000 0.000000
vt 0.625000 0.000000
vt 0.625000 0.250000
vt 0.375000 0.250000
vt 0.250000 0.500000
vt 0.125000 0.500000
vt 0.125000 0.500000
vt 0.250000 0.500000
vt 0.375000 0.500000
vt 0.625000 0.500000
vt 0.625000 0.750000
vt 0.375000 0.750000
vt 0.375000 0.875000
vt 0.625000 0.875000
vt 0.625000 1.000000
vt 0.375000 1.000000
vt 0.250000 0.750000
vt 0.625000 0.500000
vt 0.625000 0.500000
vt 0.625000 0.500000
vt 0.375000 0.500000
vt 0.375000 0.500000
vt 0.625000 0.500000
vt 0.625000 0.750000
vt 0.625000 0.875000
vt 0.625000 0.250000
vt 0.375000 0.250000
vt 0.625000 0.375000
vt 0.625000 0.250000
vt 0.625000 0.250000
vt 0.625000 0.375000
vt 0.125000 0.500000
vt 0.250000 0.500000
vt 0.625000 0.500000
vt 0.625000 0.500000
vt 0.625000 0.500000
vt 0.625000 0.500000
vt 0.625000 0.250000
vt 0.375000 0.250000
vt 0.375000 0.500000
vt 0.375000 0.500000
vt 0.625000 0.250000
vt 0.375000 0.250000
vt 0.125000 0.500000
vt 0.250000 0.500000
vt 0.375000 0.375000
vt 0.125000 0.500000
vt 0.250000 0.500000
vt 0.625000 0.250000
vt 0.625000 0.250000
vt 0.375000 0.250000
vt 0.625000 0.250000
vt 0.625000 0.250000
vt 0.625000 0.250000
vt 0.625000 0.500000
vt 0.625000 0.500000
vt 0.625000 0.500000
vt 0.625000 0.500000
vt 0.625000 0.500000
vt 0.625000 0.250000
vt 0.625000 0.000000
vt 0.625000 0.000000
vt 0.625000 0.250000
vt 0.625000 0.250000
vt 0.625000 0.250000
vt 0.625000 0.500000
vt 0.625000 0.500000
vt 0.625000 0.500000
vt 0.625000 0.500000
vt 0.625000 0.000000
vt 0.625000 0.250000
vt 0.625000 0.500000
vt 0.625000 0.250000
vt 0.625000 0.750000
vt 0.625000 0.250000
vt 0.625000 0.375000
vt 0.625000 0.875000
vt 0.625000 0.500000
vt 0.625000 0.500000
vt 0.625000 0.000000
vt 0.625000 0.250000
vt 0.625000 0.875000
vt 0.625000 0.750000
vt 0.625000 0.750000
vt 0.625000 0.875000
vt 0.625000 0.375000
vt 0.625000 0.250000
vt 0.625000 0.375000
vt 0.625000 0.250000
vt 0.625000 0.250000
vt 0.625000 0.500000
vt 0.625000 0.250000
vt 0.750000 0.500000
vt 0.875000 0.500000
vt 0.875000 0.750000
vt 0.750000 0.750000
vt 0.625000 0.500000
vt 0.625000 0.500000
vt 0.750000 0.500000
vt 0.750000 0.500000
vt 0.625000 0.500000
vt 0.750000 0.500000
vt 0.750000 0.500000
vt 0.625000 0.250000
vt 0.625000 0.250000
vt 0.875000 0.500000
vt 0.875000 0.500000
vt 0.875000 0.500000
vt 0.875000 0.500000
vt 0.625000 1.000000
vt 0.625000 1.000000
vt 0.625000 1.000000
vt 0.625000 1.000000
vt 0.125000 0.750000
vn 0.0000 -1.0000 0.0000
vn 0.0000 0.0000 -1.0000
vn 0.0000 1.0000 0.0000
vn 0.0000 0.0000 1.0000
vn -1.0000 0.0000 0.0000
vn 1.0000 0.0000 0.0000
vn 0.9681 0.2119 -0.1339
vn 0.8578 -0.0836 -0.5071
vn -0.9877 0.0000 0.1567
vn 0.9877 0.0000 0.1567
vn 0.4379 0.8975 0.0524
vn 0.9907 0.0000 0.1363
vn 0.0000 0.9218 0.3877
vn -0.9929 0.0000 0.1189
vn 0.9929 0.0000 0.1189
vn 0.0000 0.9898 -0.1428
vn 0.3120 0.9473 -0.0722
vn -0.9907 0.0000 0.1363
vn 0.9743 0.0000 -0.2253
vn -0.4371 0.8974 0.0601
vn -0.9743 0.0000 -0.2253
vn -0.1957 0.9796 -0.0453
vn 0.2820 0.9586 0.0388
vn 0.2435 0.9699 0.0000
vn 0.1957 0.9796 -0.0453
vn -0.2777 0.9599 0.0383
vn 0.4371 0.8974 0.0601
vn 0.4747 0.8773 0.0705
vn 0.3838 0.9234 0.0000
vn -0.4747 0.8773 0.0705
vn -0.4379 0.8975 0.0524
vn -0.3120 0.9473 -0.0722
vn -0.3838 0.9234 0.0000
vn 0.8439 0.4997 0.1955
vn -0.9204 0.3700 -0.1266
vn -0.9046 0.4262 0.0000
vn -0.8439 0.4997 0.1955
vn 0.9157 0.3818 -0.1250
vn 0.2825 0.9587 0.0338
vn -0.2435 0.9699 0.0000
vn 0.2777 0.9599 0.0383
vn -0.2820 0.9586 0.0388
vn -0.2825 0.9587 0.0338
vn 0.0000 0.9961 -0.0883
vn 0.0000 0.9956 0.0939
vn 0.5767 0.8059 -0.1336
vn -0.7094 0.6981 0.0968
vn 0.0000 0.9568 0.2908
vn 0.0000 0.9531 -0.3028
vn -0.7232 0.6852 0.0866
vn -0.9223 0.3703 -0.1105
vn 0.9046 0.4262 0.0000
vn -0.9157 0.3818 -0.1250
vn 0.9204 0.3700 -0.1266
vn 0.9223 0.3703 -0.1105
vn 0.0000 0.8001 0.5999
vn 0.0000 0.8126 -0.5829
vn 0.6687 0.7435 0.0000
vn 0.7218 0.6849 0.0993
vn -0.5767 0.8059 -0.1336
vn 0.7232 0.6852 0.0866
vn -0.6687 0.7435 0.0000
vn 0.7094 0.6981 0.0968
vn -0.7218 0.6849 0.0993
usemtl Material.035
s off
f 93/1/1 95/2/1 96/3/1 94/4/1
f 100/5/1 97/6/1 98/7/1 99/8/1
f 126/9/1 100/5/1 99/8/1 125/10/1
f 95/2/1 101/11/1 102/12/1 96/3/1
f 122/13/2 131/14/2 127/15/2 124/16/2
f 126/9/1 128/17/1 105/18/1 100/5/1
f 108/19/3 109/20/3 110/21/3 107/22/3
f 116/23/3 113/24/3 111/25/3 112/26/3
f 130/27/3 129/28/3 113/24/3 116/23/3
f 107/22/3 110/21/3 115/29/3 114/30/3
f 102/12/4 118/31/4 117/32/4 115/29/4
f 130/27/3 116/23/3 119/33/3 132/34/3
f 129/28/3 115/29/3 117/32/3 103/35/3
f 95/2/5 93/1/5 108/19/5 107/22/5
f 131/14/2 99/8/2 113/24/2 127/15/2
f 97/6/5 100/5/5 116/23/5 112/26/5
f 93/1/4 94/4/4 109/20/4 108/19/4
f 128/17/5 106/36/5 120/37/5 132/34/5
f 94/4/6 96/3/6 110/21/6 109/20/6
f 100/5/2 105/18/2 119/33/2 116/23/2
f 106/36/4 101/11/4 114/30/4 120/37/4
f 96/3/6 102/12/6 115/29/6 110/21/6
f 98/7/2 97/6/2 112/26/2 111/25/2
f 99/8/6 98/7/6 111/25/6 113/24/6
f 125/10/1 104/38/1 118/31/1 102/12/1
f 101/11/5 95/2/5 107/22/5 114/30/5
f 99/8/1 131/14/1 104/38/1 125/10/1
f 118/31/4 121/39/4 123/40/4 117/32/4
f 103/35/3 117/32/3 123/40/3 133/41/3
f 104/38/1 134/42/1 121/39/1 118/31/1
f 131/14/1 122/13/1 134/42/1 104/38/1
f 127/15/3 103/35/3 133/41/3 124/16/3
f 134/42/7 133/41/7 123/40/7 121/39/7
f 105/18/5 128/17/5 132/34/5 119/33/5
f 114/30/3 130/27/3 132/34/3 120/37/3
f 113/24/3 129/28/3 103/35/3 127/15/3
f 114/30/3 115/29/3 129/28/3 130/27/3
f 101/11/1 106/36/1 128/17/1 126/9/1
f 124/16/8 133/41/8 134/42/8 122/13/8
f 101/11/1 126/9/1 125/10/1 102/12/1
usemtl (null)
f 1/43/9 2/44/9 4/45/9 3/46/9
f 73/47/1 3/48/1 9/49/1 76/50/1
f 7/51/10 8/52/10 6/53/10 5/54/10
f 74/55/4 75/56/4 2/57/4 1/58/4
f 73/47/1 7/51/1 5/54/1 74/59/1
f 8/52/11 12/60/11 30/61/11 27/62/11
f 12/60/12 11/63/12 15/64/12 16/65/12
f 75/56/13 6/53/13 28/66/13 81/67/13
f 3/46/14 4/45/14 10/68/14 9/69/14
f 8/52/15 7/51/15 11/63/15 12/60/15
f 80/70/16 22/71/16 35/72/16 82/73/16
f 76/50/1 9/49/1 13/74/1 77/75/1
f 20/76/17 24/77/17 36/78/17 34/79/17
f 9/69/18 10/68/18 14/80/18 13/81/18
f 20/76/19 19/82/19 23/83/19 24/77/19
f 13/81/5 14/80/5 18/84/5 17/85/5
f 16/65/6 15/64/6 19/82/6 20/76/6
f 77/75/1 13/74/1 17/86/1 78/87/1
f 79/88/2 80/70/2 24/77/2 23/83/2
f 78/87/1 17/86/1 21/89/1 79/90/1
f 14/80/20 10/68/20 29/91/20 31/92/20
f 17/85/21 18/84/21 22/71/21 21/93/21
f 35/72/22 33/94/22 45/95/22 47/96/22
f 30/61/23 32/97/23 44/98/23 42/99/23
f 32/97/24 34/79/24 46/100/24 44/98/24
f 34/79/25 36/78/25 48/101/25 46/100/25
f 26/102/26 25/103/26 37/104/26 38/105/26
f 12/60/27 16/65/27 32/97/27 30/61/27
f 6/53/28 8/52/28 27/62/28 28/66/28
f 16/65/29 20/76/29 34/79/29 32/97/29
f 4/45/30 2/44/30 25/103/30 26/102/30
f 10/68/31 4/45/31 26/102/31 29/91/31
f 22/71/32 18/84/32 33/94/32 35/72/32
f 18/84/33 14/80/33 31/92/33 33/94/33
f 47/96/34 45/95/34 57/106/34 59/107/34
f 42/99/35 44/98/35 56/108/35 54/109/35
f 44/98/36 46/100/36 58/110/36 56/108/36
f 46/100/37 48/101/37 60/111/37 58/110/37
f 38/105/38 37/104/38 49/112/38 50/113/38
f 27/62/39 30/61/39 42/99/39 39/114/39
f 33/94/40 31/92/40 43/115/40 45/95/40
f 28/66/41 27/62/41 39/114/41 40/116/41
f 31/92/42 29/91/42 41/117/42 43/115/42
f 29/91/43 26/102/43 38/105/43 41/117/43
f 82/73/44 35/72/44 47/96/44 84/118/44
f 81/67/45 28/66/45 40/116/45 83/119/45
f 58/110/46 60/111/46 72/120/46 70/121/46
f 50/113/47 49/112/47 61/122/47 62/123/47
f 85/124/48 52/125/48 64/126/48 88/127/48
f 86/128/49 59/107/49 71/129/49 92/130/49
f 53/131/50 50/113/50 62/123/50 65/132/50
f 39/114/51 42/99/51 54/109/51 51/133/51
f 45/95/52 43/115/52 55/134/52 57/106/52
f 40/116/53 39/114/53 51/133/53 52/125/53
f 43/115/54 41/117/54 53/131/54 55/134/54
f 41/117/55 38/105/55 50/113/55 53/131/55
f 84/118/56 47/96/56 59/107/56 86/128/56
f 83/119/57 40/116/57 52/125/57 85/124/57
f 87/135/3 62/136/3 61/137/3 88/138/3
f 87/135/3 63/139/3 66/140/3 89/141/3
f 90/142/3 68/143/3 70/121/3 91/144/3
f 89/141/3 66/140/3 68/143/3 90/142/3
f 91/144/3 70/121/3 72/120/3 92/145/3
f 56/108/58 58/110/58 70/121/58 68/143/58
f 54/109/59 56/108/59 68/143/59 66/140/59
f 59/107/60 57/106/60 69/146/60 71/129/60
f 51/133/61 54/109/61 66/140/61 63/139/61
f 57/106/62 55/134/62 67/147/62 69/146/62
f 52/125/63 51/133/63 63/139/63 64/126/63
f 55/134/64 53/131/64 65/132/64 67/147/64
f 69/148/3 91/144/3 92/145/3 71/149/3
f 65/150/3 89/141/3 90/142/3 67/151/3
f 67/151/3 90/142/3 91/144/3 69/148/3
f 62/136/3 87/135/3 89/141/3 65/150/3
f 63/139/3 87/135/3 88/138/3 64/126/3
f 37/152/57 83/119/57 85/124/57 49/153/57
f 48/101/56 84/118/56 86/128/56 60/111/56
f 60/111/49 86/128/49 92/130/49 72/120/49
f 49/153/48 85/124/48 88/127/48 61/154/48
f 25/155/45 81/67/45 83/119/45 37/152/45
f 36/78/44 82/73/44 84/118/44 48/101/44
f 19/82/1 78/87/1 79/90/1 23/83/1
f 21/93/2 22/71/2 80/70/2 79/88/2
f 15/64/1 77/75/1 78/87/1 19/82/1
f 11/63/1 76/50/1 77/75/1 15/64/1
f 24/77/16 80/70/16 82/73/16 36/78/16
f 2/57/13 75/56/13 81/67/13 25/155/13
f 3/48/1 73/47/1 74/59/1 1/156/1
f 5/54/4 6/53/4 75/56/4 74/55/4
f 7/51/1 73/47/1 76/50/1 11/63/1
